<svg xmlns="http://www.w3.org/2000/svg" aria-hidden="true" style="position:absolute;width:0;height:0;overflow:hidden">
  <defs>
    <symbol id="mail" viewBox="0 0 32 32">
      <path d="M29 4H3C1.346 4 0 5.346 0 7v18c0 1.654 1.346 3 3 3h26c1.654 0 3-1.346 3-3V7c0-1.654-1.346-3-3-3zm0 2c.136 0 .265.028.383.077L16 17.676 2.617 6.077A.996.996 0 0 1 3 6h26zm0 20H3a1 1 0 0 1-1-1V8.19l13.345 11.565a.998.998 0 0 0 1.31 0L30 8.19V25a1 1 0 0 1-1 1z"/>
    </symbol>
    <symbol id="smartphone" viewBox="0 0 32 32">
      <path d="M23 0H9C7.346 0 6 1.346 6 3v26c0 1.654 1.346 3 3 3h14c1.654 0 3-1.346 3-3V3c0-1.654-1.346-3-3-3zM9 2h14a1 1 0 0 1 1 1v21H8V3a1 1 0 0 1 1-1zm14 28H9a1 1 0 0 1-1-1v-3h16v3a1 1 0 0 1-1 1z"/>
      <path d="M10.707 27.478c.391.365.391.956 0 1.321s-1.024.365-1.414 0c-.391-.365-.391-.956 0-1.321s1.024-.365 1.414 0z"/>
    </symbol>
    <symbol id="antenna" viewBox="0 0 32 32">
    <path fill="#212121" style="fill: var(--color1, #212121)" d="M30.773 22.098l-8.443-8.505 0.937-4.615c0.242 0.094 0.499 0.144 0.758 0.146h0.006c1.192 0.014 2.17-0.941 2.184-2.133s-0.941-2.17-2.133-2.184c-1.192-0.014-2.17 0.941-2.184 2.133-0.003 0.255 0.039 0.509 0.125 0.749l-4.96 0.605-8.091-8.133c-0.099-0.101-0.235-0.159-0.377-0.16-0.14 0.001-0.274 0.056-0.373 0.155l-1.513 1.504c-0.208 0.208-0.208 0.546 0 0.754l0.814 0.826c-3.153 5.798-2.129 12.978 2.519 17.663 0.043 0.041 0.092 0.074 0.146 0.098-0.034 0.18-0.051 0.364-0.052 0.547v6.187h-6.4c-1.472 0.002-2.665 1.195-2.667 2.667v1.067c0 0.295 0.239 0.533 0.533 0.533h24.533c0.295 0 0.533-0.239 0.533-0.533v-1.067c-0.002-1.472-1.195-2.665-2.667-2.667h-6.4v-2.742c1.003 0.21 2.024 0.317 3.049 0.32 2.458-0.003 4.877-0.615 7.040-1.783l0.818 0.823c0.099 0.101 0.235 0.159 0.377 0.16 0.14-0.001 0.274-0.056 0.373-0.155l1.513-1.504c0.208-0.208 0.208-0.546 0-0.754zM23.28 6.233c0.418-0.415 1.093-0.414 1.508 0.004s0.414 1.093-0.004 1.508c-0.2 0.199-0.47 0.31-0.752 0.31h-0.003c-0.589-0.003-1.064-0.483-1.061-1.072 0.002-0.282 0.115-0.552 0.314-0.751h-0.002zM22.024 9.738l-0.598 2.946-1.175-1.182 1.774-1.763zM21.419 8.836l-1.92 1.909-1.485-1.493 3.405-0.415zM24.004 28.8c0.884 0 1.6 0.716 1.6 1.6v0.533h-23.467v-0.533c0-0.884 0.716-1.6 1.6-1.6h20.267zM16.537 26.667v1.067h-5.333v-1.067h5.333zM11.204 25.6v-4.053c0-1.294 1.196-2.347 2.667-2.347s2.667 1.053 2.667 2.347v4.053h-5.333zM17.604 23.904v-2.357c0-1.882-1.675-3.413-3.733-3.413-1.331-0.020-2.576 0.657-3.281 1.786-4.058-4.274-4.971-10.645-2.279-15.887l18.602 18.708c-2.872 1.461-6.165 1.873-9.309 1.163zM28.893 23.22l-21.057-21.181 0.755-0.752 7.935 7.98c0.004 0 0.006 0.007 0.010 0.010l13.115 13.191-0.757 0.752z"></path>
    <path fill="#2196f3" style="fill: var(--color2, #2196f3)" d="M13.876 20.267h-0.005c-0.884-0.001-1.601 0.714-1.602 1.598s0.714 1.601 1.598 1.602h0.005c0.884 0.001 1.601-0.714 1.602-1.598s-0.714-1.601-1.598-1.602zM14.249 22.245c-0.1 0.1-0.236 0.156-0.378 0.155-0.295-0.002-0.532-0.242-0.531-0.536 0.001-0.141 0.057-0.276 0.157-0.375s0.233-0.154 0.373-0.155c0.295 0.002 0.532 0.241 0.53 0.536-0.001 0.141-0.057 0.276-0.157 0.375h0.005z"></path>
    </symbol>
   <symbol id="clock" viewBox="0 0 32 32">
    <path fill="#212121" style="fill: var(--color1, #212121)" d="M31.297 15.301c-0.002-8.452-6.855-15.303-15.308-15.301s-15.303 6.855-15.301 15.308c0.001 6.658 4.307 12.551 10.649 14.576 0.061 0.019 0.124 0.029 0.187 0.029 0.121-0 0.239-0.032 0.342-0.094 0.135-0.080 0.236-0.207 0.283-0.356l3.865-12.25c1.057-0.005 1.909-0.866 1.903-1.923s-0.866-1.909-1.923-1.903c-0.284 0.001-0.565 0.067-0.82 0.191l-5.106-5.107c-0.253-0.245-0.657-0.238-0.902 0.016-0.239 0.247-0.239 0.639 0 0.886l5.103 5.109c-0.392 0.799-0.168 1.764 0.536 2.309l-3.683 11.673c-7.278-2.681-11.004-10.754-8.323-18.032s10.754-11.004 18.032-8.323 11.004 10.754 8.323 18.032c-1.31 3.556-4.001 6.431-7.462 7.973l-0.398-1.874c-0.073-0.344-0.411-0.565-0.756-0.492-0.109 0.023-0.209 0.074-0.292 0.148l-3.837 3.426c-0.263 0.234-0.287 0.637-0.052 0.9 0.076 0.085 0.174 0.149 0.283 0.184l4.899 1.563c0.335 0.108 0.694-0.077 0.802-0.412 0.034-0.106 0.040-0.219 0.017-0.328l-0.391-1.839c5.664-2.388 9.342-7.942 9.329-14.089v0zM15.992 14.664c0.352 0 0.638 0.286 0.638 0.638s-0.286 0.638-0.638 0.638c-0.352 0-0.638-0.285-0.638-0.638s0.285-0.638 0.638-0.638zM18.093 29.528l2.184-1.948 0.603 2.84-2.787-0.892z"></path>
    <path fill="#2196f3" style="fill: var(--color2, #2196f3)" d="M15.354 3.185v1.275c0 0.352 0.285 0.638 0.638 0.638s0.638-0.285 0.638-0.638v-1.275c0-0.352-0.286-0.638-0.638-0.638s-0.638 0.286-0.638 0.638z"></path>
    <path fill="#2196f3" style="fill: var(--color2, #2196f3)" d="M3.876 14.664c-0.352 0-0.638 0.286-0.638 0.638s0.285 0.638 0.638 0.638h1.275c0.352 0 0.638-0.285 0.638-0.638s-0.285-0.638-0.638-0.638h-1.275z"></path>
    <path fill="#2196f3" style="fill: var(--color2, #2196f3)" d="M28.108 15.939c0.352 0 0.638-0.285 0.638-0.638s-0.285-0.638-0.638-0.638h-1.275c-0.352 0-0.638 0.286-0.638 0.638s0.286 0.638 0.638 0.638h1.275z"></path>
    </symbol>
    <symbol id="diagram" viewBox="0 0 32 32">
    <path fill="#2196f3" style="fill: var(--color2, #2196f3)" d="M14.926 14.965h1.066v4.798h-1.066v-4.797z"></path>
    <path fill="#2196f3" style="fill: var(--color2, #2196f3)" d="M19.19 17.097h1.066v2.665h-1.066v-2.665z"></path>
    <path fill="#2196f3" style="fill: var(--color2, #2196f3)" d="M10.661 18.696h1.066v1.066h-1.066v-1.066z"></path>
    <path fill="#2196f3" style="fill: var(--color2, #2196f3)" d="M7.463 18.163h1.066v1.599h-1.066v-1.599z"></path>
    <path fill="#212121" style="fill: var(--color1, #212121)" d="M1.599 28.291h25.587c0.883 0 1.599-0.716 1.599-1.599v-2.132c0-0.883-0.716-1.599-1.599-1.599h-0.533v-13.293l3.028-2.868c0.703 0.346 1.553 0.136 2.013-0.499s0.396-1.508-0.152-2.068-1.42-0.644-2.065-0.198c-0.644 0.446-0.873 1.292-0.542 2.002l-2.281 2.163v-1.23c0-0.883-0.716-1.599-1.599-1.599h-21.322c-0.883 0-1.599 0.716-1.599 1.599v15.992h-0.533c-0.883 0-1.599 0.716-1.599 1.599v2.132c0 0.883 0.716 1.599 1.599 1.599zM30.384 4.837c0.294 0 0.533 0.239 0.533 0.533s-0.239 0.533-0.533 0.533c-0.294 0-0.533-0.239-0.533-0.533s0.239-0.533 0.533-0.533zM3.198 6.969c0-0.294 0.239-0.533 0.533-0.533h21.322c0.294 0 0.533 0.239 0.533 0.533v2.239l-1.066 1.013v-2.186c0-0.294-0.239-0.533-0.533-0.533h-19.19c-0.294 0-0.533 0.239-0.533 0.533v13.326c0 0.294 0.239 0.533 0.533 0.533h19.19c0.294 0 0.533-0.239 0.533-0.533v-9.674l1.066-1.010v12.284h-22.388v-15.992zM7.996 13.899c-0.721-0.002-1.354 0.478-1.546 1.174s0.105 1.433 0.725 1.801c0.62 0.368 1.41 0.276 1.928-0.226l1.853 0.93c0.215 0.108 0.476 0.057 0.636-0.123l3.939-4.431 3.872 2.901c0.208 0.156 0.498 0.139 0.686-0.039l3.365-3.188v8.131h-18.124v-12.26h18.124v2.66l-3.771 3.572-3.904-2.927c-0.222-0.166-0.534-0.135-0.718 0.072l-3.993 4.493-1.493-0.746c0.011-0.064 0.018-0.129 0.020-0.193 0-0.883-0.716-1.599-1.599-1.599zM8.529 15.498c0 0.294-0.239 0.533-0.533 0.533s-0.533-0.239-0.533-0.533c0-0.294 0.239-0.533 0.533-0.533s0.533 0.239 0.533 0.533zM11.727 24.027h5.331v0.533c0 0.294-0.239 0.533-0.533 0.533h-4.264c-0.294 0-0.533-0.239-0.533-0.533v-0.533zM1.066 24.56c0-0.294 0.239-0.533 0.533-0.533h9.062v0.533c0 0.883 0.716 1.599 1.599 1.599h4.264c0.883 0 1.599-0.716 1.599-1.599v-0.533h9.062c0.294 0 0.533 0.239 0.533 0.533v2.132c0 0.294-0.239 0.533-0.533 0.533h-25.587c-0.294 0-0.533-0.239-0.533-0.533v-2.132z"></path>
    </symbol>
    <symbol id="astronaut" viewBox="0 0 32 32">
    <path fill="#2196f3" style="fill: var(--color2, #2196f3)" d="M31.974 4.524c-0.063-0.193-0.229-0.333-0.43-0.363l-1.91-0.278-0.855-1.731c-0.179-0.365-0.777-0.365-0.956 0l-0.855 1.731-1.91 0.278c-0.201 0.029-0.367 0.17-0.431 0.363-0.062 0.193-0.011 0.405 0.135 0.547l1.383 1.348-0.326 1.903c-0.034 0.2 0.048 0.402 0.212 0.522 0.166 0.121 0.382 0.135 0.562 0.040l1.709-0.899 1.709 0.899c0.078 0.041 0.164 0.061 0.249 0.061 0.11 0 0.221-0.034 0.314-0.102 0.164-0.119 0.246-0.322 0.212-0.522l-0.326-1.903 1.383-1.348c0.145-0.142 0.197-0.354 0.135-0.547zM29.511 5.851c-0.125 0.122-0.183 0.299-0.153 0.472l0.191 1.114-1-0.526c-0.078-0.041-0.163-0.061-0.249-0.061s-0.17 0.020-0.249 0.061l-1.001 0.526 0.191-1.114c0.030-0.173-0.028-0.349-0.153-0.472l-0.81-0.789 1.119-0.163c0.174-0.025 0.324-0.134 0.402-0.292l0.5-1.013 0.5 1.013c0.078 0.157 0.228 0.267 0.402 0.292l1.119 0.163-0.809 0.789z"></path>
    <path fill="#2196f3" style="fill: var(--color2, #2196f3)" d="M26.134 20.522h-1.067v1.067h1.067v-1.067z"></path>
    <path fill="#2196f3" style="fill: var(--color2, #2196f3)" d="M26.134 22.656h-1.067v1.067h1.067v-1.067z"></path>
    <path fill="#2196f3" style="fill: var(--color2, #2196f3)" d="M27.2 21.589h-1.067v1.067h1.067v-1.067z"></path>
    <path fill="#2196f3" style="fill: var(--color2, #2196f3)" d="M25.067 21.589h-1.067v1.067h1.067v-1.067z"></path>
    <path fill="#2196f3" style="fill: var(--color2, #2196f3)" d="M22.4 26.389h-1.067v1.067h1.067v-1.067z"></path>
    <path fill="#2196f3" style="fill: var(--color2, #2196f3)" d="M22.4 28.522h-1.067v1.067h1.067v-1.067z"></path>
    <path fill="#2196f3" style="fill: var(--color2, #2196f3)" d="M23.467 27.456h-1.067v1.067h1.067v-1.067z"></path>
    <path fill="#2196f3" style="fill: var(--color2, #2196f3)" d="M21.333 27.456h-1.067v1.067h1.067v-1.067z"></path>
    <path fill="#2196f3" style="fill: var(--color2, #2196f3)" d="M16 24.256h-1.067v1.067h1.067v-1.067z"></path>
    <path fill="#2196f3" style="fill: var(--color2, #2196f3)" d="M16 26.389h-1.067v1.067h1.067v-1.067z"></path>
    <path fill="#2196f3" style="fill: var(--color2, #2196f3)" d="M17.067 25.322h-1.067v1.067h1.067v-1.067z"></path>
    <path fill="#2196f3" style="fill: var(--color2, #2196f3)" d="M14.933 25.322h-1.067v1.067h1.067v-1.067z"></path>
    <path fill="#2196f3" style="fill: var(--color2, #2196f3)" d="M5.867 6.122h-1.067v1.067h1.067v-1.067z"></path>
    <path fill="#2196f3" style="fill: var(--color2, #2196f3)" d="M5.867 8.255h-1.067v1.067h1.067v-1.067z"></path>
    <path fill="#2196f3" style="fill: var(--color2, #2196f3)" d="M6.933 7.189h-1.067v1.067h1.067v-1.067z"></path>
    <path fill="#2196f3" style="fill: var(--color2, #2196f3)" d="M4.8 7.189h-1.067v1.067h1.067v-1.067z"></path>
    <path fill="#212121" style="fill: var(--color1, #212121)" d="M24.715 14.159c-0.287-0.388-0.709-0.637-1.188-0.705-0.481-0.068-0.956 0.058-1.34 0.352l-1.252 0.96-1.898 1.417-1.358-0.541c2.421-1.086 4.114-3.508 4.114-6.32 0-3.823-3.123-6.933-6.961-6.933s-6.961 3.11-6.961 6.933c0 1.386 0.414 2.674 1.12 3.758l-2.764-0.024c-0.002 0-0.003 0-0.005 0-0.009 0-0.015 0.004-0.023 0.005-0.053 0.002-0.105 0.013-0.155 0.031-0.013 0.005-0.026 0.008-0.038 0.013-0.006 0.003-0.013 0.003-0.019 0.006l-3.233 1.596c-0.001 0-0.001 0-0.001 0.001l-1.893 0.911c-0.021 0.009-0.042 0.021-0.063 0.035-0.755 0.502-1.012 1.489-0.598 2.295 0.22 0.429 0.595 0.745 1.056 0.889 0.178 0.055 0.359 0.083 0.539 0.083 0.29 0 0.577-0.071 0.839-0.211l1.388-0.738 2.264-1.169 1.357-0.008-5.442 5.416c-0.001 0.001-0.001 0.001-0.002 0.001l-1.339 1.333c-0.316 0.315-0.49 0.732-0.49 1.178s0.174 0.863 0.49 1.179c0.325 0.323 0.752 0.485 1.179 0.485s0.854-0.162 1.18-0.485l1.314-1.309 1.741-1.3 0.901 0.897-1.762 1.754c-0 0.001-0.001 0.001-0.002 0.001l-1.339 1.333c-0.316 0.315-0.49 0.732-0.49 1.178s0.174 0.863 0.49 1.179c0.325 0.323 0.753 0.485 1.18 0.485s0.855-0.162 1.18-0.485l3.482-3.467c0.001-0.001 0.001-0.001 0.001-0.002l1.010-1-0.004-0.004c0.006-0.006 0.015-0.009 0.022-0.015l5.166-5.658 3.471 0.494c0.025 0.004 0.050 0.005 0.075 0.005 0.065 0 0.127-0.015 0.187-0.038 0.018-0.006 0.033-0.015 0.050-0.023 0.019-0.010 0.039-0.015 0.058-0.027l3.213-2.133c0.012-0.008 0.018-0.021 0.029-0.029 0.013-0.010 0.029-0.014 0.041-0.026l1.271-1.191c0.662-0.62 0.753-1.635 0.212-2.362zM2.13 17.77c-0.173 0.093-0.37 0.111-0.558 0.052-0.187-0.058-0.338-0.186-0.427-0.358-0.161-0.314-0.068-0.695 0.214-0.902l1.314-0.632 0.449 1.312-0.992 0.528zM5.628 15.942l-1.548 0.8-0.439-1.283 2.027-1.001-0.040 1.484zM20.727 9.322c0 0.918-0.219 1.785-0.599 2.559l-4.181-1.899c-0.044-0.573-0.341-1.075-0.788-1.388l1.464-4.86c2.378 0.756 4.105 2.974 4.105 5.588zM8.938 9.322c0-3.235 2.644-5.867 5.894-5.867 0.253 0 0.5 0.021 0.745 0.052l-1.432 4.754c-0.019-0.001-0.037-0.006-0.057-0.006-1.033 0-1.873 0.837-1.873 1.867s0.84 1.867 1.873 1.867c0.694 0 1.294-0.383 1.618-0.945l3.862 1.755c-1.075 1.446-2.795 2.39-4.737 2.39-3.25 0-5.894-2.632-5.894-5.867zM14.894 10.122c0 0.441-0.362 0.8-0.806 0.8s-0.806-0.359-0.806-0.8c0-0.441 0.362-0.8 0.806-0.8s0.806 0.359 0.806 0.8zM2.465 25.146c-0.236 0.234-0.619 0.234-0.854 0.001-0.114-0.114-0.176-0.263-0.176-0.423s0.062-0.309 0.176-0.421l0.962-0.958 0.851 0.848-0.959 0.955zM5.679 28.88c-0.236 0.234-0.619 0.235-0.855 0.001-0.114-0.114-0.176-0.263-0.176-0.423s0.062-0.309 0.176-0.421l0.963-0.959 0.852 0.848-0.96 0.955zM9.16 25.411c-0.001 0-0.001 0-0.002 0.001l-1.765 1.76-0.852-0.848 1.763-1.755c0 0 0 0 0-0s0.001-0.001 0.002-0.001c0.040-0.040 0.065-0.088 0.090-0.135 0.007-0.014 0.020-0.026 0.026-0.040 0.017-0.041 0.019-0.085 0.026-0.129 0.003-0.025 0.014-0.047 0.014-0.073 0-0.036-0.013-0.070-0.020-0.106-0.006-0.032-0.006-0.065-0.019-0.095-0.020-0.050-0.055-0.094-0.091-0.138-0.010-0.012-0.014-0.027-0.025-0.038 0 0 0 0-0.001 0s-0.001-0.002-0.001-0.002l-1.607-1.6c-0.017-0.017-0.039-0.024-0.058-0.038-0.028-0.022-0.055-0.042-0.087-0.058-0.030-0.015-0.061-0.024-0.093-0.033-0.034-0.010-0.067-0.017-0.103-0.020-0.033-0.002-0.063 0.001-0.095 0.005-0.036 0.004-0.069 0.009-0.104 0.020-0.034 0.011-0.063 0.027-0.094 0.045-0.020 0.011-0.042 0.015-0.061 0.029l-1.773 1.324-0.901-0.897 2.399-2.386 4.361 4.289-0.928 0.919zM15.979 18.394c-0.015-0.002-0.030 0.004-0.045 0.003-0.039-0.002-0.076 0.001-0.115 0.007-0.030 0.005-0.059 0.011-0.088 0.021-0.034 0.012-0.065 0.028-0.097 0.047-0.030 0.018-0.057 0.037-0.083 0.061-0.013 0.011-0.028 0.017-0.040 0.029l-4.698 5.146-4.328-4.257 2.833-2.818c0.209-0.208 0.21-0.546 0.002-0.755-0.105-0.105-0.243-0.157-0.381-0.156v-0.001l-2.219 0.013 0.028-1.607 3.104 0.027c1.265 1.294 3.029 2.101 4.981 2.101 0.437 0 0.864-0.045 1.279-0.123 0.040 0.032 0.079 0.065 0.13 0.085l2.41 0.96 0.331 1.644-3.003-0.427zM20.020 18.572l-0.313-1.558 1.446-1.080 0.947 1.257-2.080 1.381zM23.774 15.741l-0.838 0.785-0.931-1.236 0.831-0.637c0.155-0.119 0.351-0.168 0.543-0.143 0.193 0.027 0.364 0.128 0.48 0.284 0.217 0.292 0.18 0.699-0.085 0.947z"></path>
    <path fill="#212121" style="fill: var(--color1, #212121)" d="M13.602 18.544l-2.143-2.133c-0.207-0.207-0.545-0.207-0.753 0l-2.142 2.133c-0.1 0.101-0.157 0.236-0.157 0.378s0.056 0.278 0.157 0.378l2.142 2.133c0.104 0.103 0.241 0.155 0.377 0.155s0.273-0.052 0.376-0.155l2.143-2.133c0.1-0.1 0.157-0.236 0.157-0.378s-0.057-0.278-0.157-0.378zM11.083 20.303l-1.387-1.381 1.387-1.381 1.387 1.381-1.387 1.381z"></path>
    <path fill="#212121" style="fill: var(--color1, #212121)" d="M17.164 5.071l-0.258 1.036c0.071 0.018 1.738 0.452 1.738 2.149h1.067c-0-2.017-1.666-2.965-2.547-3.185z"></path>
    <path fill="#212121" style="fill: var(--color1, #212121)" d="M19.711 9.322h-1.067v1.067h1.067v-1.067z"></path>
    </symbol>
    <symbol id="group-1" viewBox="0 0 32 32">
      <path d="m6.128 0 4.771 4.517-8.856-.005v21.915h23.149v-8.379l4.766 4.512V.001H6.128zm18.854 17.517L11.454 4.71h13.528v12.807zm-4.2 5.704H5.706V8.482h1.066v13.741h14.01v.998zM9.266 29.344l-.557 1.147-.557-1.147h-.467l.813 1.529v.891h.422v-.891l.811-1.529h-.465zm.699 2.42.196-.563h.938l.198.563h.439l-.916-2.42h-.377l-.914 2.42h.437zm.665-1.906.351 1.004h-.701l.351-1.004zm2.218.946a.55.55 0 0 0-.091.307c0 .204.072.37.214.497.144.126.336.189.575.189s.445-.065.618-.194l.136.161h.469l-.356-.421c.14-.191.209-.435.209-.733h-.351a.973.973 0 0 1-.101.444l-.467-.552.165-.12a.905.905 0 0 0 .251-.253.532.532 0 0 0 .076-.279.496.496 0 0 0-.17-.384.61.61 0 0 0-.432-.156.641.641 0 0 0-.465.166.591.591 0 0 0-.173.449c0 .078.018.158.055.241.038.083.104.184.198.303-.18.129-.3.24-.361.334zm1.092.535a.616.616 0 0 1-.382.136c-.121 0-.217-.035-.289-.105s-.108-.161-.108-.273c0-.13.067-.245.2-.346l.052-.037.529.623zm-.434-1.072c-.114-.141-.171-.258-.171-.351 0-.081.023-.148.07-.201s.109-.08.188-.08c.073 0 .133.023.181.068a.21.21 0 0 1 .072.161.298.298 0 0 1-.103.234l-.052.042-.184.126zm3.939 1.314c.166-.145.262-.347.286-.605h-.419c-.022.173-.075.296-.158.371s-.207.111-.372.111a.468.468 0 0 1-.412-.206c-.093-.137-.14-.337-.14-.598v-.214c.002-.258.052-.454.15-.587a.493.493 0 0 1 .422-.201c.157 0 .276.039.357.116.082.076.133.202.153.376h.419c-.027-.265-.121-.47-.284-.615s-.378-.218-.645-.218a.978.978 0 0 0-.525.141c-.151.094-.267.228-.347.402s-.121.375-.121.603v.226c.003.223.045.418.125.587s.193.299.339.391a.949.949 0 0 0 .51.136c.276 0 .497-.072.663-.216zm2.472-.339c.082-.18.123-.388.123-.625v-.135a1.462 1.462 0 0 0-.126-.62.924.924 0 0 0-.878-.552.957.957 0 0 0-.525.145.939.939 0 0 0-.354.414 1.484 1.484 0 0 0-.125.625v.136c.001.232.043.436.126.613a.962.962 0 0 0 .356.411.98.98 0 0 0 .525.143.97.97 0 0 0 .525-.143.932.932 0 0 0 .352-.412zm-.45-1.368c.102.143.153.349.153.617v.126c0 .273-.05.48-.151.622a.493.493 0 0 1-.429.213.503.503 0 0 1-.432-.218c-.103-.145-.155-.351-.155-.617v-.14c.002-.26.054-.462.156-.603a.496.496 0 0 1 .427-.214c.186 0 .33.072.43.214z"/>
    </symbol>
    <symbol id="group-2" viewBox="0 0 32 32">
      <path d="M14.224 1.806h-.084a9.985 9.985 0 0 0-.388-.014h-.28c-.244 0-.494.006-.741.019a.523.523 0 0 0-.056 0 17.4 17.4 0 0 0-6.471 1.651l-.266.128v13.625l.623-.211a23.32 23.32 0 0 1 1.731-.513 21.155 21.155 0 0 1 4.982-.662v1.79a15.56 15.56 0 0 0-.655.019h-.051a19.948 19.948 0 0 0-3.833.588c-1.59.398-3.124.996-4.566 1.779V2.53A18.3 18.3 0 0 1 8.959.582 18.343 18.343 0 0 1 13.474 0h.263c.314.008.621.022.909.044.759.053 1.511.173 2.249.358v1.762a13.947 13.947 0 0 0-2.179-.329l-.045-.004c-.152-.013-.304-.026-.446-.026zm3.101 1.801c.391.03.796.044 1.205.044a19.352 19.352 0 0 0 4.747-.609c1.589-.4 3.123-.998 4.564-1.781v17.163a18.313 18.313 0 0 1-4.792 1.948 18.486 18.486 0 0 1-4.515.581 13.778 13.778 0 0 1-3.425-.404V3.274c.265.061.537.117.814.164.455.077.934.133 1.401.167zm8.735.133-.623.21c-.573.192-1.15.365-1.731.518a21.098 21.098 0 0 1-5.173.663c-.406 0-.78-.011-1.141-.034l-.497-.033v14.017l.427.038c.395.034.803.052 1.214.052a16.573 16.573 0 0 0 4.074-.527 17.107 17.107 0 0 0 3.184-1.144l.266-.128V3.742zM5.377 25.977a.912.912 0 0 0-.693-.28 1.034 1.034 0 0 0-.4.075.91.91 0 0 0-.512.518 1.023 1.023 0 0 0-.072.387v2.335c-.006.165.026.328.092.479.055.12.135.226.234.313a.815.815 0 0 0 .321.166c.114.032.231.048.349.049a.972.972 0 0 0 .892-.61.951.951 0 0 0 .075-.372v-.261h-.61v.208a.528.528 0 0 1-.036.208.359.359 0 0 1-.089.131.365.365 0 0 1-.128.067.425.425 0 0 1-.128.022.314.314 0 0 1-.286-.125.548.548 0 0 1-.081-.313v-2.177a.738.738 0 0 1 .075-.349.31.31 0 0 1 .299-.141.33.33 0 0 1 .272.131c.068.09.104.2.101.313v.202h.604v-.238a1.093 1.093 0 0 0-.279-.737zM9.002 25.95a1.051 1.051 0 0 0-1.38 0 .961.961 0 0 0-.237.327 1.099 1.099 0 0 0-.089.452v2.239a1.08 1.08 0 0 0 .089.459c.055.12.136.227.237.313a.94.94 0 0 0 .322.197 1.028 1.028 0 0 0 .728 0c.121-.044.233-.111.33-.197a.948.948 0 0 0 .23-.313 1.08 1.08 0 0 0 .089-.459v-2.239a1.08 1.08 0 0 0-.089-.452 1.015 1.015 0 0 0-.23-.327zm-.284 3.019a.405.405 0 0 1-.121.324.445.445 0 0 1-.574 0 .397.397 0 0 1-.121-.324V26.73a.405.405 0 0 1 .121-.324.445.445 0 0 1 .574 0 .397.397 0 0 1 .121.324v2.239zM13.764 29.969V25.73h-.587l-.771 2.244h-.011l-.777-2.244h-.581v4.239h.606V27.39h.011l.593 1.823h.302l.598-1.823h.011v2.579h.606zM17.205 26.027a.84.84 0 0 0-.343-.232 1.363 1.363 0 0 0-.439-.066h-.9v4.239h.604v-1.656h.311c.189.009.376-.031.545-.116a.882.882 0 0 0 .332-.324 1.02 1.02 0 0 0 .139-.369c.024-.16.035-.321.033-.482a2.421 2.421 0 0 0-.059-.606.898.898 0 0 0-.223-.39zm-.311 1.292a.547.547 0 0 1-.056.221.346.346 0 0 1-.156.149.619.619 0 0 1-.285.053h-.276v-1.441h.311a.578.578 0 0 1 .272.053.349.349 0 0 1 .142.157.62.62 0 0 1 .053.236v.282c0 .099.006.2 0 .291h-.006zM20.066 25.73h-.495l-.934 4.239h.604l.177-.911h.823l.177.911h.604l-.957-4.239zm-.557 2.751.297-1.537h.011l.296 1.537h-.604zM23.969 28.284h-.011l-.912-2.554h-.581v4.239h.604V27.42h.012l.923 2.549h.568V25.73h-.604v2.554zM27.66 25.73l-.486 1.685h-.012l-.486-1.685h-.64l.83 2.447v1.792h.604v-1.792l.83-2.447h-.64zM3.692 31.166h.291v.817h.198v-.817h.29v-.167h-.778v.167zM6.14 30.998l-.381.984h.21l.081-.224h.392l.084.224h.215l-.391-.984h-.21zm-.032.595.134-.365.134.365h-.268zM8.559 31.62h.227v.127a.38.38 0 0 1-.233.083.244.244 0 0 1-.209-.093.411.411 0 0 1-.073-.257c0-.219.095-.329.283-.329a.206.206 0 0 1 .222.157l.195-.038c-.042-.192-.181-.289-.417-.289a.495.495 0 0 0-.344.127.494.494 0 0 0-.141.379.532.532 0 0 0 .126.369.477.477 0 0 0 .374.144.59.59 0 0 0 .417-.157v-.388h-.427v.166zM11.029 30.998h-.199v.984h.69v-.167h-.49v-.817zM13.118 30.998h-.199v.984h.199v-.984zM15.161 31.656l-.403-.657h-.193v.984h.185v-.643l.395.643h.198v-.984h-.182v.657zM17.007 31.549h.49v-.167h-.49v-.216h.528v-.167h-.727v.984h.747v-.167h-.548v-.266zM21.484 31.387h-.388v-.388h-.198v.984h.198v-.43h.388v.43h.198v-.984h-.198v.388zM23.342 31.549h.492v-.167h-.492v-.216h.529v-.167h-.727v.984h.746v-.167h-.548v-.266zM25.86 31.549c.171-.027.258-.117.258-.274a.236.236 0 0 0-.096-.219.553.553 0 0 0-.288-.058h-.417v.984h.198v-.412h.039a.261.261 0 0 1 .123.022.21.21 0 0 1 .07.072l.215.313h.237l-.12-.192a.685.685 0 0 0-.218-.236zm-.199-.136h-.146v-.247h.156a.526.526 0 0 1 .201.023c.014.013.026.029.033.046a.133.133 0 0 1-.005.111.128.128 0 0 1-.037.043.547.547 0 0 1-.201.023zM27.76 31.549h.49v-.167h-.49v-.216h.529v-.167h-.729v.984h.747v-.167h-.548v-.266z"/>
    </symbol>
    <symbol id="group-3" viewBox="0 0 32 32">
      <path d="M5.267 30.294a.098.098 0 0 1 .06.024l.155.148c-.12.12-.269.216-.436.281a1.701 1.701 0 0 1-.619.101 1.66 1.66 0 0 1-.582-.094 1.266 1.266 0 0 1-.438-.266 1.189 1.189 0 0 1-.283-.411 1.373 1.373 0 0 1-.099-.527 1.223 1.223 0 0 1 .408-.94c.132-.116.291-.207.465-.268.191-.064.394-.096.599-.094.19-.004.379.025.556.086.154.058.295.138.417.238l-.13.158a.132.132 0 0 1-.033.029.093.093 0 0 1-.052.012.119.119 0 0 1-.056-.017l-.07-.042-.097-.054a1.136 1.136 0 0 0-.306-.094 1.366 1.366 0 0 0-.231-.017 1.225 1.225 0 0 0-.43.071 1 1 0 0 0-.337.199.918.918 0 0 0-.219.317 1.042 1.042 0 0 0-.079.418c-.002.145.025.288.079.425.047.116.12.223.215.315a.878.878 0 0 0 .322.195c.127.046.262.068.399.067.079.001.158-.003.237-.013a.944.944 0 0 0 .512-.217.12.12 0 0 1 .074-.027zM9.745 29.549c.002.179-.033.356-.105.524-.063.152-.163.291-.292.407s-.286.207-.458.267c-.38.126-.799.126-1.179 0a1.36 1.36 0 0 1-.456-.268 1.192 1.192 0 0 1-.295-.411c-.14-.339-.14-.71 0-1.05.066-.153.166-.293.295-.413.13-.112.285-.2.456-.258.379-.128.8-.128 1.179 0 .172.061.328.152.458.268.128.117.227.255.293.406.072.169.107.347.105.527zm-.407 0a1.11 1.11 0 0 0-.074-.421.863.863 0 0 0-.535-.514 1.365 1.365 0 0 0-.857 0 .912.912 0 0 0-.328.199.836.836 0 0 0-.209.315 1.23 1.23 0 0 0 0 .842.86.86 0 0 0 .537.512c.276.09.581.09.857 0a.922.922 0 0 0 .328-.197.872.872 0 0 0 .207-.315 1.11 1.11 0 0 0 .074-.421zM12.801 29.991l.041.094c.015-.034.029-.064.045-.094.015-.032.032-.063.05-.093l.991-1.565c.019-.027.037-.044.056-.049a.246.246 0 0 1 .081-.008h.293v2.545h-.347v-1.95a.646.646 0 0 1 0-.088l-.997 1.587c-.013.024-.033.044-.058.058s-.055.021-.085.021h-.056c-.03 0-.06-.007-.085-.021s-.046-.034-.058-.058l-1.026-1.597v2.043h-.335v-2.54h.293a.272.272 0 0 1 .081.008c.024.01.043.028.054.049l1.012 1.567c.02.029.037.059.05.091zM16.529 29.864v.953h-.388v-2.542h.865c.163-.003.326.016.483.056a.97.97 0 0 1 .341.158.655.655 0 0 1 .194.249.766.766 0 0 1 .066.325.727.727 0 0 1-.072.325.698.698 0 0 1-.209.254.981.981 0 0 1-.343.168 1.63 1.63 0 0 1-.467.059l-.469-.007zm0-.272h.469a1.08 1.08 0 0 0 .3-.039.645.645 0 0 0 .217-.11.487.487 0 0 0 .179-.382c.004-.071-.009-.141-.039-.207s-.076-.125-.136-.174a.834.834 0 0 0-.522-.136h-.469v1.048zM21.741 30.821h-.306a.139.139 0 0 1-.085-.024.157.157 0 0 1-.05-.059l-.264-.615h-1.324l-.273.615a.14.14 0 0 1-.049.057.148.148 0 0 1-.087.025h-.306l1.163-2.546h.403l1.179 2.546zm-1.92-.945h1.093l-.461-1.036a1.755 1.755 0 0 1-.087-.239l-.045.133c-.014.04-.029.078-.043.108l-.458 1.034zM23.416 28.288a.174.174 0 0 1 .058.045l1.697 1.919v-1.976h.347v2.545h-.194a.174.174 0 0 1-.141-.062l-1.695-1.917a.646.646 0 0 1 0 .088v1.891h-.347v-2.545h.206a.167.167 0 0 1 .07.012zM28.375 29.809v1.011h-.388v-1.011l-1.072-1.533h.347a.133.133 0 0 1 .083.022.216.216 0 0 1 .052.057l.671.989c.027.042.05.081.07.118s.035.072.049.108l.05-.11a.888.888 0 0 1 .066-.116l.661-.996a.284.284 0 0 1 .05-.054.128.128 0 0 1 .083-.025h.351l-1.074 1.54zM12.609 24.004c.169.019.339.034.512.047 2.616-1.017 4.829-2.681 6.363-4.785s2.319-4.553 2.259-7.043L18.86 9.718c.586 2.651.312 5.39-.792 7.913s-2.994 4.729-5.459 6.372z"/>
      <path d="m11.579 23.888.078.013c2.634-1.637 4.642-3.923 5.765-6.562s1.308-5.51.533-8.242l-4.106-3.568c1.661 2.933 2.33 6.215 1.928 9.464s-1.857 6.334-4.196 8.893zM25.506 15.165c-.698 2.735-2.392 5.202-4.832 7.035a15.392 15.392 0 0 1-2.296 1.432c1.986-.507 3.812-1.404 5.337-2.621s2.707-2.723 3.456-4.4l-1.665-1.445z"/>
      <path d="m24.853 14.763-2.371-2.06c-.045 2.349-.814 4.644-2.226 6.648s-3.416 3.642-5.803 4.745h.012c.532 0 1.064-.028 1.592-.083 2.231-.791 4.202-2.05 5.737-3.664s2.586-3.533 3.06-5.586zM11.923 4.026 9.094 1.565c-2.529.849-4.704 2.342-6.24 4.282S.492 10.086.484 12.442c.009 2.603 1.018 5.128 2.865 7.177s4.429 3.504 7.335 4.135c2.594-2.746 4.113-6.14 4.336-9.688s-.862-7.065-3.097-10.04zM31.388 14.384c-.01-3.088-1.427-6.047-3.94-8.23s-5.919-3.414-9.473-3.423a15.073 15.073 0 0 0-4.803.777l17.32 15.048c.593-1.33.897-2.744.896-4.171z"/>
    </symbol>
    <symbol id="Logo-1" viewBox="0 0 32 32">
      <path d="M7.289 13.314h-.001c-.724 0-1.311.522-1.311 1.165v.001c0 .643.587 1.165 1.311 1.165h.001c.724 0 1.311-.522 1.311-1.165v-.001c0-.643-.587-1.165-1.311-1.165zM16.965 12.942c-.002-.894-.402-1.75-1.113-2.382s-1.675-.988-2.68-.99c-1.006.002-1.97.357-2.681.989s-1.112 1.489-1.114 2.383v4.928s7.587-.751 7.588-4.927v-.001zM3.321 19.487c.002.622.28 1.218.775 1.657s1.165.688 1.865.689c.699-.002 1.37-.25 1.864-.689s.773-1.035.775-1.657v-3.429s-5.28.523-5.28 3.428zm2.639.614c-.137 0-.27-.036-.384-.104s-.202-.163-.255-.276c-.052-.112-.066-.236-.039-.355s.093-.229.189-.315a.762.762 0 0 1 .753-.133c.126.047.234.125.31.226a.567.567 0 0 1 .065.577.605.605 0 0 1-.15.2c-.064.057-.141.103-.225.134s-.174.047-.265.047V20.1zM11.296 19.763h-.509v.526h-.265v-1.288h.838v.215h-.573v.333h.509v.214zm1.275-.089c0 .127-.022.238-.067.333a.508.508 0 0 1-.48.299.508.508 0 0 1-.481-.296.765.765 0 0 1-.07-.329v-.064c0-.127.023-.238.068-.334a.508.508 0 0 1 .481-.3c.108 0 .203.026.286.078.084.051.148.125.194.222s.069.207.069.333v.058zm-.269-.058c0-.135-.024-.238-.072-.308s-.117-.105-.207-.105c-.089 0-.158.035-.206.104s-.073.17-.073.304v.063c0 .131.024.233.072.306s.118.109.209.109c.089 0 .157-.035.205-.104s.072-.172.072-.306v-.063zm1.13.335c0-.05-.018-.088-.053-.115s-.099-.055-.191-.085a1.428 1.428 0 0 1-.218-.088c-.146-.079-.219-.185-.219-.319 0-.07.019-.131.058-.186s.096-.098.169-.128c.074-.031.156-.046.248-.046s.174.017.246.05a.377.377 0 0 1 .227.348h-.265c0-.059-.019-.105-.056-.137s-.089-.049-.157-.049c-.065 0-.115.014-.151.042s-.054.063-.054.108c0 .042.021.077.063.105s.105.055.187.08c.151.045.261.102.33.169s.104.151.104.251c0 .111-.042.199-.127.263s-.198.095-.341.095c-.099 0-.189-.018-.271-.054s-.144-.086-.187-.149a.386.386 0 0 1-.064-.219h.266c0 .142.085.213.255.213.063 0 .112-.013.148-.038s.053-.062.053-.108zm1.416-.735h-.394v1.073h-.265v-1.073H13.8v-.215h1.049v.215zm.927.515h-.509v.345h.598v.213h-.863v-1.288h.861v.215h-.596v.307h.509v.208zm.72.086h-.211v.471h-.265V19h.479c.152 0 .269.034.352.102s.124.164.124.287c0 .088-.019.161-.057.22s-.095.105-.172.14l.279.526v.012h-.285l-.241-.471zm-.211-.214h.214c.067 0 .118-.017.155-.05s.055-.081.055-.141c0-.061-.017-.108-.052-.143s-.087-.052-.158-.052h-.213v.387zm1.608.232v.454h-.265v-1.288h.502c.097 0 .182.018.255.053a.397.397 0 0 1 .229.373c0 .126-.043.226-.13.299s-.206.109-.358.109h-.233zm0-.215h.237c.07 0 .124-.017.16-.05s.056-.08.056-.142c0-.063-.019-.114-.056-.153s-.088-.059-.154-.06h-.243v.404zm1.679.111h-.509v.345h.598v.213h-.863v-1.288h.861v.215h-.596v.307h.509v.208zm1.231-.515h-.394v1.073h-.265v-1.073h-.389v-.215h1.049v.215zm.927.515h-.509v.345h.598v.213h-.863v-1.288h.861v.215h-.596v.307h.509v.208zm.721.086h-.211v.471h-.265V19h.478c.152 0 .269.034.352.102s.124.164.124.287c0 .088-.019.161-.057.22s-.095.105-.172.14l.279.526v.012h-.285l-.241-.471zm-.212-.214h.214c.067 0 .118-.017.155-.05s.055-.081.055-.141c0-.061-.017-.108-.052-.143s-.087-.052-.158-.052h-.213v.387zm1.559.348c0-.05-.018-.088-.053-.115s-.099-.055-.191-.085a1.428 1.428 0 0 1-.218-.088c-.146-.079-.219-.185-.219-.319 0-.07.019-.131.058-.186s.096-.098.169-.128c.074-.031.156-.046.248-.046s.174.017.246.05a.377.377 0 0 1 .227.348h-.265c0-.059-.019-.105-.056-.137s-.089-.049-.157-.049c-.065 0-.115.014-.151.042s-.054.063-.054.108c0 .042.021.077.063.105s.105.055.187.08c.151.045.261.102.33.169s.103.151.103.251c0 .111-.042.199-.126.263s-.198.095-.34.095c-.099 0-.189-.018-.271-.054s-.144-.086-.187-.149a.386.386 0 0 1-.064-.219h.266c0 .142.085.213.255.213.063 0 .112-.013.148-.038s.053-.062.053-.108z"/>
    </symbol>
    <symbol id="Logo-2" viewBox="0 0 32 32">
      <path d="M8.078 20.448a.431.431 0 0 1 .111.295c.004.07-.01.14-.039.204s-.075.122-.132.168a.793.793 0 0 1-.499.136h-.877v-1.869h.859c.17-.01.338.034.476.124.055.043.099.096.128.157s.042.127.038.193a.408.408 0 0 1-.1.286.476.476 0 0 1-.261.146.506.506 0 0 1 .296.16zm-1.029-.282h.367a.367.367 0 0 0 .233-.062c.028-.023.049-.051.063-.083s.019-.066.016-.1c.003-.034-.003-.068-.016-.099s-.034-.06-.061-.083a.38.38 0 0 0-.24-.063H7.05v.49zm.637.717c.029-.023.053-.053.068-.086s.022-.069.019-.104a.224.224 0 0 0-.089-.191.403.403 0 0 0-.249-.068H7.05v.514h.39a.405.405 0 0 0 .246-.065zM9.833 21.252l-.478-.73h-.18v.73h-.411v-1.869h.778a.812.812 0 0 1 .542.159.556.556 0 0 1 .058.773.645.645 0 0 1-.371.19l.509.747h-.447zm-.657-.985h.336c.233 0 .35-.094.35-.283.002-.039-.004-.077-.019-.113s-.038-.069-.067-.097a.392.392 0 0 0-.264-.076h-.34l.004.569zM12.079 20.876h-.819l-.145.376h-.431l.752-1.848h.466l.749 1.848h-.431l-.142-.376zm-.11-.283-.299-.789-.299.789h.598zM14.89 21.252h-.408l-.914-1.271v1.271h-.407v-1.869h.407l.914 1.278v-1.278h.408v1.869zM17.217 20.805a.852.852 0 0 1-.369.33 1.295 1.295 0 0 1-.573.118h-.726v-1.869h.726a1.32 1.32 0 0 1 .573.115.838.838 0 0 1 .369.326c.084.152.128.32.128.49s-.044.338-.128.49zm-.466-.045c.116-.124.18-.282.18-.446s-.064-.322-.18-.446a.753.753 0 0 0-.511-.159h-.283v1.21h.283a.75.75 0 0 0 .511-.159zM12.334 8.986s5.264 1.82 5.153 4.453v4.454s-5.261-1.821-5.151-4.454l-.002-4.453zM22.177 16.851a7.626 7.626 0 0 1 3.345-1.129v-1.394c-1.383.488-2.557 1.373-3.345 2.523z"/>
      <path d="M21.579 17.271c.814-1.5 2.225-2.658 3.942-3.235v-4.018s-7.497 2.592-7.339 6.342v6.341s.334-.116.86-.333c0-.203 0-.407.024-.613.155-1.741 1.059-3.354 2.513-4.485z"/>
      <path d="M20.866 19.627c.039-.44.127-.875.262-1.298-.905.977-1.454 2.189-1.568 3.465a5.465 5.465 0 0 0-.02.365c.426-.187.921-.421 1.442-.696a6.028 6.028 0 0 1-.117-1.836zM21.165 19.649a5.732 5.732 0 0 0 .093 1.663c2.048-1.122 4.35-2.856 4.261-4.952v-.183c-1.463.15-2.833.736-3.897 1.667a5.828 5.828 0 0 0-.457 1.804z"/>
    </symbol>
    <symbol id="Logo-3" viewBox="0 0 32 32">
      <path d="M16.128 15.218a.89.89 0 0 1-.183-.6v-.87c0-.267.061-.47.182-.608s.329-.208.624-.207c.277 0 .473.059.59.177a.721.721 0 0 1 .174.521v.205h-.495v-.207a1.061 1.061 0 0 0-.014-.203.193.193 0 0 0-.071-.12.286.286 0 0 0-.179-.047.303.303 0 0 0-.189.05.233.233 0 0 0-.082.133.972.972 0 0 0-.019.215v1.056a.536.536 0 0 0 .064.297c.025.031.059.056.099.072s.084.021.128.017a.268.268 0 0 0 .175-.048.22.22 0 0 0 .074-.128c.012-.07.017-.141.015-.212v-.214h.495v.196a.795.795 0 0 1-.171.547c-.114.129-.308.194-.593.194s-.5-.069-.623-.213zM18.191 15.226c-.125-.136-.188-.333-.188-.594v-.916c0-.259.063-.454.188-.587s.334-.199.628-.198c.291 0 .499.066.625.198s.189.329.189.587v.916c0 .259-.064.457-.191.593s-.334.205-.623.205c-.288 0-.502-.069-.628-.204zm.858-.219a.507.507 0 0 0 .059-.271v-1.121a.5.5 0 0 0-.058-.266c-.025-.032-.06-.057-.101-.073s-.086-.021-.131-.016c-.044-.005-.09 0-.131.016s-.076.041-.102.073a.48.48 0 0 0-.059.266v1.126a.507.507 0 0 0 .059.271.341.341 0 0 0 .462 0v-.005zM20.227 12.958h.533l.401 1.689.41-1.689h.519l.052 2.438h-.384l-.041-1.695-.396 1.695h-.308l-.41-1.701-.038 1.701h-.388l.048-2.438zM22.741 12.958h.831c.479 0 .718.231.718.692 0 .442-.252.663-.756.662h-.283v1.084h-.513l.003-2.438zm.71 1.042a.384.384 0 0 0 .282-.077.393.393 0 0 0 .074-.275.75.75 0 0 0-.025-.221c-.007-.024-.02-.047-.038-.067s-.04-.037-.065-.049a.537.537 0 0 0-.229-.039h-.199v.729h.199zM25.029 12.958h.551l.565 2.438h-.478l-.112-.562h-.491l-.115.562h-.485l.565-2.438zm.471 1.594-.192-1.023-.192 1.023h.384zM26.601 12.958h.359l.687 1.391v-1.391h.426v2.438h-.342l-.691-1.452v1.452h-.44l.001-2.438zM29.07 14.467l-.571-1.505h.481l.349.967.327-.967h.471l-.564 1.505v.93h-.492v-.93zM16.92 16.462v.128h-.418v.991h-.175v-.991h-.42v-.128h1.014zM18.232 17.581h-.135a.057.057 0 0 1-.038-.011.058.058 0 0 1-.023-.026l-.121-.266h-.58l-.121.266a.078.078 0 0 1-.018.03.07.07 0 0 1-.038.011h-.135l.513-1.118h.178l.519 1.114zm-.849-.415h.484l-.205-.455a.825.825 0 0 1-.038-.105l-.019.059-.018.047-.203.454zM19.116 17.471h.096a.621.621 0 0 0 .156-.033l.069-.027v-.252h-.205c-.005 0-.01 0-.015-.002l-.013-.007-.008-.009a.014.014 0 0 1-.002-.011v-.086h.398v.429a.714.714 0 0 1-.217.091.928.928 0 0 1-.128.023c-.05.005-.1.007-.15.007a.75.75 0 0 1-.258-.042.62.62 0 0 1-.205-.117.537.537 0 0 1-.132-.177.592.592 0 0 1-.001-.466c.029-.066.075-.127.132-.177s.128-.09.205-.116a.982.982 0 0 1 .54-.004.626.626 0 0 1 .192.102l-.049.069c-.004.006-.01.012-.017.015s-.015.006-.023.006a.062.062 0 0 1-.032-.009.513.513 0 0 1-.05-.027.62.62 0 0 0-.293-.065.599.599 0 0 0-.198.031.431.431 0 0 0-.151.089.38.38 0 0 0-.095.139.521.521 0 0 0 0 .373.443.443 0 0 0 .253.23.577.577 0 0 0 .203.022zM20.751 17.453h.56v.128h-.731v-1.118h.175l-.004.991zM21.893 17.581h-.175v-1.118h.175v1.118zM22.545 16.468a.09.09 0 0 1 .027.02l.75.843a.267.267 0 0 1 0-.04V16.458h.153v1.123h-.088a.082.082 0 0 1-.038-.006.12.12 0 0 1-.028-.021l-.749-.842V17.582h-.147v-1.118h.091c.01 0 .02.002.029.005zM24.766 16.462v.123h-.622v.369h.504v.119h-.504v.382h.622v.123h-.802v-1.116h.802zM6.388 9.556l7.787 1.909v6.689l-7.787-1.908v-6.69zm-.499-.57v7.585l8.785 2.154v-7.584L5.889 8.986z"/>
      <path d="m10.597 22.247-8.786-2.156v-7.584l8.786 2.155v7.585zM6.035 9.47l7.686 1.885-3.268 2.823-7.687-1.886 3.27-2.822zm-.146-.484-4.078 3.52 8.786 2.155 4.077-3.52-8.785-2.155zM11.092 21.82l3.582-3.094-3.582-.879v3.973z"/>
    </symbol>
    <symbol id="instagram" viewBox="0 0 32 32">
      <path d="M27.406 6.72c-.053-1.214-.25-2.049-.531-2.773a5.57 5.57 0 0 0-1.322-2.027A5.627 5.627 0 0 0 23.53.603c-.728-.281-1.558-.478-2.773-.531-1.224-.058-1.612-.071-4.715-.071s-3.492.013-4.711.067c-1.214.054-2.049.25-2.773.531a5.57 5.57 0 0 0-2.027 1.322 5.64 5.64 0 0 0-1.317 2.023c-.281.728-.478 1.558-.531 2.773-.058 1.224-.072 1.612-.072 4.715s.013 3.492.067 4.711c.054 1.214.25 2.049.531 2.773.29.768.741 1.456 1.322 2.027a5.627 5.627 0 0 0 2.023 1.317c.728.281 1.558.478 2.773.531 1.219.054 1.607.067 4.711.067s3.492-.013 4.711-.067c1.215-.053 2.049-.25 2.773-.531a5.847 5.847 0 0 0 3.345-3.344c.281-.728.478-1.558.531-2.773.053-1.219.067-1.608.067-4.711s-.005-3.492-.058-4.711zm-2.058 9.332c-.049 1.116-.237 1.719-.393 2.121a3.79 3.79 0 0 1-2.17 2.17c-.402.156-1.009.344-2.121.393-1.206.054-1.567.067-4.617.067s-3.416-.013-4.617-.067c-1.116-.049-1.719-.236-2.121-.393a3.507 3.507 0 0 1-1.313-.853 3.547 3.547 0 0 1-.853-1.313c-.156-.402-.344-1.009-.393-2.121-.054-1.206-.067-1.567-.067-4.617s.013-3.416.067-4.617c.049-1.116.237-1.719.393-2.121.183-.496.473-.947.857-1.313.37-.38.817-.67 1.313-.853.402-.156 1.009-.344 2.121-.393 1.206-.054 1.567-.067 4.617-.067 3.054 0 3.416.013 4.617.067 1.116.049 1.719.237 2.121.393.495.183.947.473 1.313.853.379.371.67.817.853 1.313.156.402.344 1.009.393 2.121.054 1.206.067 1.567.067 4.617s-.013 3.407-.067 4.613z"/>
      <path d="M16.042 5.559c-3.242 0-5.872 2.63-5.872 5.872s2.63 5.872 5.872 5.872 5.872-2.63 5.872-5.872-2.63-5.872-5.872-5.872zm0 9.681a3.81 3.81 0 1 1 .002-7.62 3.81 3.81 0 0 1-.002 7.62zM23.517 5.327a1.371 1.371 0 1 1-2.742 0 1.371 1.371 0 0 1 2.742 0z"/>
    </symbol>
    <symbol id="twitter" viewBox="0 0 32 32">
      <path d="M32 6.078c-1.19.522-2.458.868-3.78 1.036a6.523 6.523 0 0 0 2.886-3.626 13.11 13.11 0 0 1-4.16 1.588A6.574 6.574 0 0 0 22.154 3c-3.632 0-6.556 2.948-6.556 6.562 0 .52.044 1.02.152 1.496-5.454-.266-10.28-2.88-13.522-6.862a6.605 6.605 0 0 0-.898 3.316 6.57 6.57 0 0 0 2.914 5.452 6.479 6.479 0 0 1-2.964-.808v.072c0 3.188 2.274 5.836 5.256 6.446a6.548 6.548 0 0 1-1.72.216 5.8 5.8 0 0 1-1.242-.112c.85 2.598 3.262 4.508 6.13 4.57a13.182 13.182 0 0 1-8.134 2.798c-.538 0-1.054-.024-1.57-.09A18.469 18.469 0 0 0 10.064 29c12.072 0 18.672-10 18.672-18.668 0-.29-.01-.57-.024-.848A13.087 13.087 0 0 0 32 6.078z"/>
    </symbol>
    <symbol id="facebook" viewBox="0 0 32 32">
      <path d="M21.329 5.313h2.921V.225C23.746.156 22.013 0 19.994 0c-4.212 0-7.097 2.649-7.097 7.519V12H8.249v5.688h4.648V32h5.699V17.689h4.46l.708-5.688h-5.169V8.082c.001-1.644.444-2.769 2.735-2.769z"/>
    </symbol>
    <symbol id="linkedin" viewBox="0 0 32 32">
      <path d="M31.992 32v-.001H32V20.263c0-5.741-1.236-10.164-7.948-10.164-3.227 0-5.392 1.771-6.276 3.449h-.093v-2.913h-6.364v21.364h6.627V21.42c0-2.785.528-5.479 3.977-5.479 3.399 0 3.449 3.179 3.449 5.657v10.401h6.62zM.528 10.636h6.635V32H.528V10.636zM3.843 0C1.722 0 0 1.721 0 3.843s1.721 3.879 3.843 3.879c2.121 0 3.843-1.757 3.843-3.879A3.846 3.846 0 0 0 3.843 0z"/>
    </symbol>
  </defs>
</svg>
